<?xml version="1.0" standalone="no"?><!DOCTYPE svg PUBLIC "-//W3C//DTD SVG 1.1//EN" "http://www.w3.org/Graphics/SVG/1.1/DTD/svg11.dtd"><svg t="1733210895652" class="icon" viewBox="0 0 1024 1024" version="1.1" xmlns="http://www.w3.org/2000/svg" p-id="7279" xmlns:xlink="http://www.w3.org/1999/xlink" width="200" height="200"><path d="M512 1024C230.4 1024 0 793.6 0 512S230.4 0 512 0s512 230.4 512 512-230.4 512-512 512z" fill="#E9495B" p-id="7280"></path><path d="M1024 512c0-35.072-3.584-69.352-10.384-102.488l-273.072-159.184s-27.544-7.184-59.24-2.112c-36.344 5.816-67.488 43.688-67.488 43.688s-20.448-39.616-60.328-39.616c-18.12 0-47.608 11.176-47.608 11.176s-41.352-79.088-130.312-72.12c-72.376 5.672-131.904 66.368-131.904 134.08-14.312 17.272-32.72 32.504-36.808 46.728s-9.2 33.52 0 60.944 29.656 40.632 29.656 40.632L494.32 1023.552c5.872 0.2 11.744 0.448 17.68 0.448 281.6 0 512-230.4 512-512z" fill="#AB2D3D" p-id="7281"></path><path d="M398.72 628.272c-42.568 69.232-85.144 138.472-127.72 207.704-3.488 5.672 5.432 10.856 8.904 5.208 42.576-69.232 85.144-138.472 127.72-207.704 3.48-5.664-5.432-10.856-8.904-5.208M453.456 539.256c-14.6 23.736-29.192 47.48-43.792 71.216-3.488 5.672 5.432 10.856 8.904 5.208 14.6-23.744 29.2-47.48 43.792-71.216 3.48-5.672-5.432-10.856-8.904-5.208M351.416 592.632c-18.776 30.544-37.56 61.08-56.336 91.624-3.488 5.672 5.432 10.856 8.904 5.208 18.776-30.544 37.56-61.088 56.336-91.624 3.48-5.672-5.432-10.856-8.904-5.208M384.032 539.584c-6.92 11.248-13.84 22.504-20.752 33.76-3.488 5.672 5.432 10.856 8.904 5.2 6.92-11.248 13.84-22.504 20.752-33.752 3.48-5.672-5.432-10.856-8.904-5.208M285.008 702.136a1527.74 1527.74 0 0 1-40.584 67.84c-3.568 5.624 5.352 10.8 8.904 5.208a1536.994 1536.994 0 0 0 40.584-67.84c3.264-5.792-5.64-10.992-8.904-5.208M284.4 593.6l-26.808 43.944c-3.464 5.68 5.448 10.864 8.904 5.2 8.936-14.648 17.872-29.296 26.808-43.936 3.464-5.68-5.448-10.872-8.904-5.208M317.168 539.896l-23.832 39.056c-3.464 5.68 5.448 10.872 8.912 5.208 7.936-13.016 15.88-26.04 23.824-39.056 3.464-5.688-5.448-10.872-8.904-5.208M247.096 661.744c-10.04 16.2-20.088 32.408-30.128 48.616-3.504 5.656 5.408 10.84 8.904 5.2L256 666.952c3.504-5.664-5.408-10.848-8.904-5.208M519.064 538.952c-48.056 78.416-96.112 156.816-144.168 235.232-3.472 5.672 5.44 10.856 8.904 5.208 48.056-78.416 96.112-156.824 144.168-235.232 3.48-5.68-5.44-10.864-8.904-5.208M368.272 797.232c-5.528 8.968-11.064 17.928-16.592 26.896-3.496 5.664 5.416 10.848 8.904 5.2 5.528-8.968 11.056-17.928 16.592-26.888 3.496-5.672-5.416-10.856-8.904-5.208M575.376 538.68c-29.424 47.536-58.84 95.08-88.264 142.624-3.496 5.656 5.416 10.848 8.904 5.208l88.264-142.624c3.504-5.656-5.416-10.84-8.904-5.208M472.904 707.8l-51.048 82.752c-3.496 5.664 5.416 10.848 8.904 5.208l51.048-82.752c3.496-5.672-5.424-10.856-8.904-5.208" fill="#474341" p-id="7282"></path><path d="M607.312 296.536c14.808-28.088 46.256-47.6 82.856-47.776 50.816-0.24 92.192 36.808 92.704 82.832 22.504 13.448 33.664 39.136 25.528 63.776-5.144 15.568-17.008 27.616-31.832 34.424 0 0-15.28 7.432-33.224 5.992 0 0-9.024 0.336-47.944 0.952" fill="#DFF1FA" p-id="7283"></path><path d="M695.408 444.056a7.31 7.31 0 0 1-0.12-14.624c38.568-0.608 47.688-0.936 47.8-0.936 16.464 1.296 30.176-5.208 30.312-5.28 13.808-6.336 23.728-17.024 28.064-30.144 6.912-20.912-2.064-43.096-22.328-55.208a7.284 7.284 0 0 1-3.56-6.192c-0.464-41.776-38.52-75.6-84.912-75.6h-0.456c-32.456 0.144-62.464 17.36-76.432 43.856a7.308 7.308 0 0 1-9.872 3.064 7.314 7.314 0 0 1-3.056-9.872c16.712-31.688 50.928-51.496 89.296-51.672h0.52c52.912 0 96.552 38.144 99.384 86.056 23.48 15.952 33.856 44.24 25.288 70.16-5.624 17.008-18.304 30.784-35.72 38.768-0.552 0.272-17.064 8.248-36.792 6.648-0.048 0.04-9.968 0.368-47.304 0.968h-0.112v0.008z" fill="#474341" p-id="7284"></path><path d="M749.912 324.528c6.048-19.392-5.544-40.552-24.896-46.312-6.376-1.896-9.096 8.048-2.744 9.944 14.128 4.2 22.048 19.664 17.696 33.624-1.984 6.352 7.976 9.072 9.944 2.744" fill="#0F95BC" p-id="7285"></path><path d="M686.328 543.96c-23.416 38.008-46.832 76.016-70.248 114.032-3.488 5.664 5.424 10.848 8.904 5.2 23.416-38.008 46.832-76.016 70.248-114.032 3.496-5.664-5.424-10.848-8.904-5.2M727 477.944c-8.624 14.008-17.256 28.008-25.88 42.016-3.496 5.664 5.424 10.848 8.904 5.208 8.624-14.008 17.256-28.008 25.88-42.016 3.496-5.672-5.424-10.856-8.904-5.208M603.528 680.256a1895.992 1895.992 0 0 1-50.616 84.432c-3.568 5.624 5.352 10.8 8.904 5.208a1903.654 1903.654 0 0 0 50.616-84.432c3.272-5.792-5.64-11-8.904-5.208M613.296 565.568c-13.904 22.128-27.816 44.256-41.72 66.376-3.544 5.632 5.376 10.816 8.904 5.2 13.904-22.128 27.816-44.248 41.72-66.376 3.536-5.632-5.384-10.816-8.904-5.2M664.288 484.44l-37.088 59c-3.544 5.632 5.376 10.816 8.904 5.2l37.088-59c3.544-5.632-5.376-10.816-8.904-5.2M555.176 668.456c-15.632 24.48-31.256 48.96-46.888 73.44-3.584 5.616 5.344 10.792 8.904 5.208l46.888-73.44c3.576-5.616-5.344-10.792-8.904-5.208" fill="#474341" p-id="7286"></path><path d="M675.624 377.824c-9.712-31.368-35.04-53.504-64.776-60.744-0.536-3.264-1.208-6.52-2.216-9.76-11.736-37.912-51.992-59.136-89.904-47.4a71.664 71.664 0 0 0-19.944 9.776c-21.632-44.2-67.016-74.616-119.52-74.376-72.888 0.344-131.72 59.504-131.8 132.304-32.096 21.592-47.736 62.368-35.704 101.216 7.6 24.552 24.784 43.432 46.136 53.984 0 0 22.016 11.528 47.736 9.008 0 0 292.928 4.032 310.656-1.456 47.464-14.696 74.032-65.088 59.336-112.552" fill="#DFF1FA" p-id="7287"></path><path d="M493.712 500.6c-75.216 0-161.256-1.096-188.176-1.456-26.712 2.64-50.04-9.328-51.024-9.84-24.064-11.896-41.776-32.632-49.728-58.304-12.208-39.44 2.344-82.936 35.432-107.216 2.12-74.856 63.696-135.416 139.008-135.768h0.688c51.008 0 96.88 27.08 121.688 71.32a78.668 78.668 0 0 1 14.968-6.384c41.68-12.944 86.136 10.512 99.04 52.208 0.6 1.936 1.112 3.92 1.568 6.072 31.424 9.224 55.696 33.008 65.424 64.432 7.68 24.824 5.24 51.152-6.88 74.136-12.12 22.976-32.464 39.872-57.28 47.552-8.088 2.504-62.736 3.248-124.728 3.248m-188.792-16.04c112.992 1.496 295.912 2.568 309.224-1.176 21.072-6.528 38.352-20.88 48.656-40.408 10.296-19.528 12.368-41.896 5.848-62.984-8.672-27.992-30.92-48.848-59.528-55.808a7.294 7.294 0 0 1-5.488-5.936c-0.552-3.4-1.176-6.192-1.976-8.776-10.528-33.984-46.744-53.064-80.76-42.568a64.42 64.42 0 0 0-17.912 8.784 7.42 7.42 0 0 1-6.016 1.088 7.34 7.34 0 0 1-4.736-3.872C470.992 229.52 428 202.64 379.928 202.64h-0.616c-68.584 0.32-124.448 56.384-124.528 124.992a7.31 7.31 0 0 1-3.224 6.056c-30.016 20.192-43.504 58.432-32.808 92.984 6.752 21.816 21.808 39.432 42.392 49.6 0.336 0.176 20.664 10.52 43.776 8.288" fill="#474341" p-id="7288"></path><path d="M563.456 459.496l35.448-0.168c6.632-0.032 6.648-10.344 0-10.312l-35.448 0.168c-6.632 0.032-6.648 10.344 0 10.312M457.104 459.992c28.36-0.136 56.72-0.264 85.08-0.4 6.632-0.032 6.648-10.344 0-10.312-28.36 0.136-56.72 0.264-85.08 0.4-6.632 0.032-6.648 10.344 0 10.312M286.352 319.64c2.384-35.184 27.904-59.176 58.072-73.64 5.984-2.872 0.76-11.768-5.2-8.912-33.72 16.168-60.56 43.752-63.184 82.544-0.456 6.632 9.864 6.608 10.312 0.008M366.24 240.872c8.384-5.168 18.24-5.6 26.928-0.88 5.84 3.176 11.048-5.728 5.208-8.904-11.864-6.448-25.816-6.232-37.344 0.88-5.64 3.472-0.464 12.4 5.208 8.904" fill="#0F95BC" p-id="7289"></path></svg>