<?xml version="1.0" standalone="no"?><!DOCTYPE svg PUBLIC "-//W3C//DTD SVG 1.1//EN" "http://www.w3.org/Graphics/SVG/1.1/DTD/svg11.dtd"><svg t="1733214274315" class="icon" viewBox="0 0 1024 1024" version="1.1" xmlns="http://www.w3.org/2000/svg" p-id="27013" xmlns:xlink="http://www.w3.org/1999/xlink" width="200" height="200"><path d="M752.272 80h126.4C897.072 80 912 94.88 912 113.232v797.536A33.28 33.28 0 0 1 878.672 944H145.328A33.28 33.28 0 0 1 112 910.768V113.232A33.28 33.28 0 0 1 145.328 80h132" fill="#FFFFFF" p-id="27014"></path><path d="M176 80v792.72h506.704l167.68-192.672V80" fill="#FFFFFF" p-id="27015"></path><path d="M249.2 118.032v668.656H645.92l131.28-150.848V118.032" fill="#A5F2DA" p-id="27016"></path><path d="M349.712 88v64a16 16 0 0 0 16 16h292.576a16 16 0 0 0 16-16v-64H349.712z" fill="#FFFFFF" p-id="27017"></path><path d="M643.568 638l1.904 149.152 131.552-151.104zM658.288 136v-32H365.712v32a16 16 0 0 0 16 16h260.576a16 16 0 0 0 16-16z" fill="#24D796" p-id="27018"></path><path d="M400 288h297.152v32H400zM320 288h32v32h-32zM400 400h297.152v32H400zM320 400h32v32h-32zM400 512h297.152v32H400zM320 512h32v32h-32zM365.712 200h292.576a48 48 0 0 0 48-48v-96H317.712v96a48 48 0 0 0 48 48z m-16-112h324.576v64a16 16 0 0 1-16 16H365.712a16 16 0 0 1-16-16v-64z" fill="#203E81" p-id="27019"></path><path d="M878.672 64h-126.4v32H816v567.488l-138.032 166.832H210.528L208.032 96h69.296V64h-132A49.28 49.28 0 0 0 96 113.232v797.536A49.28 49.28 0 0 0 145.328 960h733.328A49.28 49.28 0 0 0 928 910.768V113.232A49.28 49.28 0 0 0 878.672 64zM896 910.768A17.28 17.28 0 0 1 878.672 928H145.328A17.28 17.28 0 0 1 128 910.768V113.232A17.28 17.28 0 0 1 145.328 96h30.704l2.592 766.32h514.384L848 675.008V96h30.672A17.28 17.28 0 0 1 896 113.232v797.536z" fill="#203E81" p-id="27020"></path><path d="M656 640h121.184v-32H624v179.056h32z" fill="#203E81" p-id="27021"></path></svg>