<?xml version="1.0" standalone="no"?><!DOCTYPE svg PUBLIC "-//W3C//DTD SVG 1.1//EN" "http://www.w3.org/Graphics/SVG/1.1/DTD/svg11.dtd"><svg t="1733211300849" class="icon" viewBox="0 0 1024 1024" version="1.1" xmlns="http://www.w3.org/2000/svg" p-id="24307" xmlns:xlink="http://www.w3.org/1999/xlink" width="200" height="200"><path d="M0.847053 0m511.232983 0l0.01334 0q511.232984 0 511.232984 511.232984l0 1.534032q0 511.232984-511.232984 511.232984l-0.01334 0q-511.232984 0-511.232983-511.232984l0-1.534032q0-511.232984 511.232983-511.232984Z" fill="#73DDDE" opacity=".5" p-id="24308"></path><path d="M0.67364 511.513111c0 282.288647 228.837621 511.139608 511.126269 511.139608s511.139608-228.850961 511.139608-511.139608S794.101895 0.386843 511.799909 0.386843 0.67364 229.224464 0.67364 511.513111z" fill="#73DDDE" opacity=".5" p-id="24309"></path><path d="M233.046206 771.631655A468.600221 468.600221 0 0 0 274.131596 964.146056a508.81855 508.81855 0 0 0 237.654973 58.506663c282.301987 0 511.139608-228.850961 511.139608-511.139608a514.341067 514.341067 0 0 0-8.297114-92.17534A468.386791 468.386791 0 0 0 703.247157 301.470722C443.542135 301.470722 233.046206 511.953312 233.046206 771.631655z" fill="#4ACED1" p-id="24310"></path><path d="M665.149795 739.697102v-66.697063H359.023618v66.697063l-53.35765 83.224594h412.841477l-53.35765-83.224594z" fill="#E5E5E5" p-id="24311"></path><path d="M808.214994 251.501283H218.853071a13.17934 13.17934 0 0 0-13.446128 12.792497v362.565231a13.166 13.166 0 0 0 13.446128 12.792497h589.361923a13.166 13.166 0 0 0 13.446128-12.792497v-362.565231a13.17934 13.17934 0 0 0-13.446128-12.792497z" fill="#4C4C4C" p-id="24312"></path><path d="M862.906585 200.157884h-701.653097a16.007295 16.007295 0 0 0-16.007295 16.007295V669.638507a16.007295 16.007295 0 0 0 16.007295 16.007295h701.653097a16.007295 16.007295 0 0 0 16.007295-16.007295V216.098482a16.007295 16.007295 0 0 0-16.007295-15.940598z m-25.238168 435.745249a15.927259 15.927259 0 0 1-16.007295 15.753846H202.498951a15.927259 15.927259 0 0 1-16.007295-15.753846v-382.841139a15.927259 15.927259 0 0 1 16.007295-15.740506h619.162171a15.927259 15.927259 0 0 1 16.007295 15.740506z" fill="#FFFFFF" p-id="24313"></path><path d="M577.549873 251.501283h-358.696802a13.17934 13.17934 0 0 0-13.446128 12.792497v362.565231a13.166 13.166 0 0 0 13.446128 12.792497H400.856015z" fill="#7F7F7F" p-id="24314"></path><path d="M240.516277 783.917254m16.007295 0l511.112929 0q16.007295 0 16.007295 16.007295l0 28.279554q0 16.007295-16.007295 16.007295l-511.112929 0q-16.007295 0-16.007295-16.007295l0-28.279554q0-16.007295 16.007295-16.007295Z" fill="#FFFFFF" p-id="24315"></path><path d="M815.404937 260.291956a25.931818 25.931818 0 0 1 0.440201 4.76217v-4.76217zM194.922165 260.291956v4.76217a25.931818 25.931818 0 0 1 0.440201-4.76217zM657.573009 524.47902a24.010942 24.010942 0 0 0-14.179796-21.863297l-75.327662-33.81541a24.944701 24.944701 0 0 0-3.508266-1.253905c18.83525-16.687605 30.960776-42.806175 30.960777-72.152882 0-48.968983-33.748714-88.920524-76.101349-91.161545V304.138605H515.41489v0.106715c-42.352635 2.241021-76.101348 42.192562-76.101349 91.161545 0 29.346707 12.125526 55.465277 30.960777 72.152882a25.558314 25.558314 0 0 0-3.508266 1.253905l-75.327662 33.815411a24.010942 24.010942 0 0 0-14.179796 21.863297v27.359135a24.010942 24.010942 0 0 0 24.010943 24.010942h232.372566a24.010942 24.010942 0 0 0 24.010942-24.010942z" fill="#FFFFFF" p-id="24316"></path></svg>