<?xml version="1.0" standalone="no"?><!DOCTYPE svg PUBLIC "-//W3C//DTD SVG 1.1//EN" "http://www.w3.org/Graphics/SVG/1.1/DTD/svg11.dtd"><svg t="1733211109664" class="icon" viewBox="0 0 1024 1024" version="1.1" xmlns="http://www.w3.org/2000/svg" p-id="18690" xmlns:xlink="http://www.w3.org/1999/xlink" width="200" height="200"><path d="M515.4 554.5H245.5c-14.3 0-25.9 11.6-25.9 25.9 0 14.3 11.6 25.9 25.9 25.9h269.9c14.3 0 25.9-11.6 25.9-25.9 0-14.2-11.6-25.9-25.9-25.9zM515.4 426H245.5c-14.3 0-25.9 11.6-25.9 25.9 0 14.3 11.6 26 25.9 26h269.9c14.3 0 25.9-11.6 25.9-26 0-14.3-11.6-25.9-25.9-25.9z" fill="#ACBEC9" p-id="18691"></path><path d="M737.9 819.4h-220V744.3h36c14.3 0 25.9-11.6 25.9-26 0-14.3-11.6-25.7-25.9-25.7h-360c-24.4 0-45-20.1-45-43.9V248.4c0-24.1 20.2-43.8 45-43.8h597.7c23.9 0 43.3 19.6 43.3 43.8v100.1c0 14.3 11.6 25.9 25.9 25.9 14.3 0 25.9-11.6 25.9-25.9V248.4c0-52.8-42.7-95.7-95.2-95.7H193.9c-53.4 0-96.9 42.9-96.9 95.7v400.4c0 52.8 43.5 95.8 96.9 95.8H466v74.9H242.8c-14.3 0-25.9 11.6-25.9 25.9s11.6 25.9 25.9 25.9h495.1c14.3 0 25.9-11.6 25.9-25.9s-11.6-26-25.9-26z" fill="#ACBEC9" p-id="18692"></path><path d="M904.2 583.7h-21.7c-3.2-18.1-10.3-35-21.1-50.3l15.5-15.5c8.9-8.9 8.9-23.3 0-32.2-8.9-8.9-23.3-8.9-32.2 0l-15.6 15.6c-15.4-10.6-32.3-17.7-50.3-20.9v-21.9c0-12.5-10.2-22.8-22.8-22.8-12.5 0-22.8 10.2-22.8 22.8v21.9c-17.6 3.2-34.4 10.3-50.1 21.1l-15.8-15.8c-8.9-8.9-23.3-8.9-32.2 0-8.9 8.9-8.9 23.3 0 32.2l15.7 15.7c-10.7 15.3-17.9 32.2-21.2 50.2h-21.7c-12.5 0-22.8 10.2-22.8 22.8 0 12.5 10.2 22.8 22.8 22.8h21.7c3.2 18.1 10.3 35 21.1 50.4l-15.5 15.5c-4.3 4.3-6.7 10-6.7 16.1s2.4 11.8 6.7 16.1c8.9 8.9 23.3 8.9 32.2 0l15.6-15.6c15.4 10.6 32.3 17.7 50.3 20.9v21.9c0 12.5 10.2 22.8 22.8 22.8 12.5 0 22.8-10.2 22.8-22.8v-21.9c17.6-3.2 34.4-10.3 50.1-21.1l15.8 15.8c8.9 8.9 23.3 8.9 32.2 0 4.3-4.3 6.7-10 6.7-16.1s-2.4-11.8-6.7-16.1l-15.7-15.7c10.7-15.3 17.9-32.2 21.2-50.2h32.3c6.7 0 12.2-5.5 12.2-12.2v-10.6c0-12.7-10.2-22.9-22.8-22.9z m-65 22.7c0 22.4-8.8 43.4-24.7 59.1-15.7 15.4-36.3 23.9-58.3 23.9H755c-43.7-0.6-81.2-38.1-81.8-81.8-0.3-22.4 8.2-43.5 23.9-59.5 15.7-15.9 36.7-24.7 59.1-24.7 45.7 0 83 37.3 83 83z" fill="#EB5F9D" p-id="18693"></path></svg>